<svg version="1.1" xmlns="http://www.w3.org/2000/svg" xmlns:xlink="http://www.w3.org/1999/xlink" width="29.04174" height="29.12544" viewBox="0,0,29.04174,29.12544"><g transform="translate(-225.47913,-165.43728)"><g data-paper-data="{&quot;isPaintingLayer&quot;:true}" fill-rule="nonzero" stroke-miterlimit="10" stroke-dasharray="" stroke-dashoffset="0" style="mix-blend-mode: normal"><g data-paper-data="{&quot;index&quot;:null}" stroke-linejoin="round"><path d="M242.07595,170.6563c-0.07833,-1.61537 -0.66962,-1.29926 -0.68391,-2.53632c-0.01325,-1.14668 0.63173,-2.4733 1.68609,-2.55104c0.88355,-0.06515 2.45387,0.68514 2.65226,3.16249c0.06731,0.84047 -0.35712,1.22226 -0.42818,1.98812c0.0194,1.67933 0.5145,3.93937 -1.84001,4.01055c-2.51355,0.07599 -1.38624,-4.07379 -1.38624,-4.07379z" data-paper-data="{&quot;origPos&quot;:null,&quot;index&quot;:null,&quot;origRot&quot;:0}" fill="#1e1c1d" stroke="none" stroke-width="0" stroke-linecap="butt"/><path d="M242.07595,170.65631c0.05875,-1.67008 -0.52305,-1.23178 -0.68391,-2.53632c-0.0553,-0.44849 0.21552,-1.42549 0.92338,-2.0609c0.29276,-0.06861 0.42106,-0.04753 0.7715,-0.07338c0.47312,-0.03489 0.70328,-0.11724 1.09723,0.03575c0.98802,0.70661 1.44462,1.44106 1.54624,2.70997c0.01773,0.44193 -0.40868,1.24085 -0.47974,2.00671c-0.1349,1.51886 0.28122,3.86393 -1.70745,3.86644c-2.28905,0.00541 -1.46725,-3.94828 -1.46725,-3.94828z" data-paper-data="{&quot;origPos&quot;:null,&quot;index&quot;:null,&quot;origRot&quot;:0}" fill="#ebe2d0" stroke="none" stroke-width="0" stroke-linecap="butt"/><path d="M245.15431,172.19885c0.02872,1.26641 -0.71832,2.4317 -1.49839,2.42266c-1.20852,-0.014 -1.68253,-1.34761 -1.71959,-2.40279c-0.03323,-0.94621 0.51608,-1.53792 0.43835,-2.18853c-0.10939,-0.91552 -0.59862,-1.4473 -0.49781,-2.5937c0.06686,-0.76035 0.45271,-1.18718 1.32366,-1.24036c1.17056,-0.07147 1.76035,0.69949 1.92566,1.73738c0.11335,0.71167 -0.52162,1.45667 -0.45813,2.25012c0,0 0.46571,1.10939 0.48625,2.01521z" data-paper-data="{&quot;origPos&quot;:null}" fill="#c99638" stroke="none" stroke-width="0" stroke-linecap="butt"/><path d="M244.22972,170.24544c0.13061,-0.00376 0.61004,1.21919 0.67839,1.43488c0.12073,0.381 -0.12799,2.74499 -1.2945,2.74146c-1.28451,-0.0368 -1.47121,-2.66254 -1.40897,-2.76461c0.31572,-0.51775 0.38772,-1.34152 0.62311,-1.32616c0.54747,0.03572 0.85326,-0.06975 1.40197,-0.08557z" data-paper-data="{&quot;origPos&quot;:null,&quot;index&quot;:null}" fill="#1e1c1d" stroke="none" stroke-width="0" stroke-linecap="round"/><path d="M244.62752,167.36978c0.07481,0.79509 -0.5405,1.83326 -0.5405,1.83326c-0.00701,1.241 0.39262,1.14686 0.58697,1.96702c0.06417,0.27083 -0.02389,0.61625 -0.3402,0.60377c-0.44844,-0.01767 0.14668,-0.6802 -0.70475,-0.68069c-0.86401,-0.00051 -0.46227,0.45617 -1.02492,0.48153c-0.22907,0.01033 -0.18252,-0.29206 -0.1265,-0.48634c0.23684,-0.8217 0.46011,-0.71817 0.3303,-2.09974c-0.05877,-0.6256 -0.39662,-0.57546 -0.49312,-1.38159c-0.06713,-0.56091 0.06093,-1.15406 0.96373,-1.15578c0.90283,-0.00172 1.29764,0.373 1.34897,0.91855z" data-paper-data="{&quot;origPos&quot;:null}" fill="#ebe2d0" stroke="none" stroke-width="1" stroke-linecap="round"/><path d="M242.41302,168.28671c0,0 0.67109,-0.18586 1.09726,-0.20574c0.41263,-0.01925 1.00171,0.13938 1.00171,0.13938l-2.02566,0.54069l2.07164,0.4759l-2.0809,0.51316l2.12811,0.51878c0,0 -0.6468,-0.17588 -1.06306,-0.171c-0.43868,0.00513 -1.12757,0.19663 -1.12757,0.19663l2.12874,-0.5779l-2.08061,-0.36722l2.08497,-0.68331z" data-paper-data="{&quot;origPos&quot;:null}" fill="none" stroke="#c99638" stroke-width="1" stroke-linecap="round"/></g><g stroke-linejoin="round"><path d="M238.21432,170.55865c0,0 0.96801,4.18035 -1.54123,4.03108c-2.35048,-0.13983 -1.76925,-2.38416 -1.68564,-4.06198c-0.04174,-0.7675 -0.45133,-1.16146 -0.35192,-1.9995c0.293,-2.47018 1.89113,-3.17425 2.7717,-3.08336c1.0508,0.10846 1.6447,1.45315 1.58761,2.5988c-0.06159,1.23595 -0.64046,0.90276 -0.78051,2.51495z" data-paper-data="{&quot;origPos&quot;:null,&quot;index&quot;:null,&quot;origRot&quot;:0}" fill="#1e1c1d" stroke="none" stroke-width="0" stroke-linecap="butt"/><path d="M238.21432,170.55866c0,0 0.67017,3.97545 -1.61739,3.90328c-1.98746,-0.06052 -1.48191,-2.39215 -1.55866,-3.91409c-0.04174,-0.7675 -0.43736,-1.57842 -0.40274,-2.01958c0.15007,-1.26523 0.6345,-1.98595 1.64899,-2.66335c0.39958,-0.14141 0.62647,-0.0524 1.09799,-0.00373c0.34926,0.03605 0.4783,0.01873 0.76827,0.09584c0.68317,0.6557 0.91649,1.64005 0.84407,2.08669c-0.21065,1.29912 -0.77538,0.84409 -0.78051,2.51495z" data-paper-data="{&quot;origPos&quot;:null,&quot;index&quot;:null,&quot;origRot&quot;:0}" fill="#ebe2d0" stroke="none" stroke-width="0" stroke-linecap="butt"/><path d="M235.0787,172.01055c0.05516,-0.90471 0.56303,-1.9999 0.56303,-1.9999c0.0938,-0.79117 -0.51234,-1.55427 -0.37184,-2.26223c0.2049,-1.03249 0.82384,-1.78581 1.99101,-1.68024c0.86843,0.07855 1.23774,0.51641 1.2755,1.27828c0.05693,1.14871 -0.45237,1.66592 -0.5967,2.57774c-0.10257,0.64798 0.42381,1.25538 0.35443,2.20009c-0.07738,1.05351 -0.60211,2.37254 -1.8105,2.35129c-0.77998,-0.01372 -1.48205,-1.20016 -1.40493,-2.46502z" data-paper-data="{&quot;origPos&quot;:null}" fill="#c99638" stroke="none" stroke-width="0" stroke-linecap="butt"/><path d="M236.07746,170.08519c0.54779,0.03182 0.84938,0.14615 1.39791,0.12642c0.23585,-0.00849 0.27631,0.81693 0.57206,1.3436c0.0583,0.10382 -0.22868,2.72265 -1.51389,2.72197c-1.16599,-0.0305 -1.32418,-2.40042 -1.18895,-2.77769c0.07655,-0.21358 0.60248,-1.42186 0.73287,-1.41429z" data-paper-data="{&quot;origPos&quot;:null,&quot;index&quot;:null}" fill="#1e1c1d" stroke="none" stroke-width="0" stroke-linecap="round"/><path d="M235.78987,167.19955c0.07216,-0.54378 0.48109,-0.90674 1.38334,-0.87869c0.90223,0.02805 1.00754,0.6246 0.91897,1.18322c-0.12724,0.80289 -0.46298,0.7429 -0.54565,1.36646c-0.18256,1.37699 0.04454,1.28005 0.24983,2.1082c0.04856,0.19581 0.08352,0.49939 -0.14503,0.48238c-0.56139,-0.04175 -0.1424,-0.48646 -1.00594,-0.51118c-0.85098,-0.02432 -0.28152,0.65517 -0.73038,0.65977c-0.31661,0.00322 -0.39141,-0.34458 -0.31693,-0.61336c0.2256,-0.81403 0.62141,-0.70831 0.66185,-1.94882c0,0 -0.57528,-1.05552 -0.47011,-1.84798z" data-paper-data="{&quot;origPos&quot;:null}" fill="#ebe2d0" stroke="none" stroke-width="1" stroke-linecap="round"/><path d="M235.82011,168.49745l2.05768,0.74375l-2.09352,0.30633l2.10548,0.63964c0,0 -0.68119,-0.21149 -1.11942,-0.22941c-0.41584,-0.017 -1.069,0.13989 -1.069,0.13989l2.14676,-0.45639l-2.06011,-0.5736l2.08867,-0.41518l-2.00385,-0.59948c0,0 0.59481,-0.14138 1.00648,-0.11008c0.42514,0.03231 1.08878,0.23764 1.08878,0.23764z" data-paper-data="{&quot;origPos&quot;:null}" fill="none" stroke="#c99638" stroke-width="1" stroke-linecap="round"/></g><path d="M244.45015,169.78011c0.15502,-0.00447 0.72401,1.44732 0.80512,1.70337c0.14328,0.4523 -0.15192,3.25863 -1.53636,3.25444c-1.5245,-0.04369 -1.74606,-3.16075 -1.67219,-3.28191c0.37471,-0.61463 0.46016,-1.59255 0.73953,-1.57431c0.64976,0.04241 1.01268,-0.0828 1.6639,-0.10159z" data-paper-data="{&quot;index&quot;:null}" fill="#1e1c1d" stroke="none" stroke-width="0" stroke-linecap="round" stroke-linejoin="round"/><path d="M250.39203,169.30089c2.10325,-0.78186 2.7414,2.88567 2.87267,4.42372c0.13011,1.52446 0.66666,3.98309 -2.40282,6.12579c-2.45462,1.93694 -2.17267,-5.30265 -2.30643,-6.71376c-0.13376,-1.41111 1.30436,-3.63791 1.83658,-3.83576z" data-paper-data="{&quot;origRot&quot;:0,&quot;index&quot;:null}" fill="#503929" stroke="none" stroke-width="0" stroke-linecap="butt" stroke-linejoin="miter"/><path d="M229.81434,169.00068c0.52436,0.21326 1.87653,2.48077 1.68889,3.88719c-0.18764,1.40642 -0.18266,8.65019 -2.56185,6.64274c-2.98584,-2.23104 -2.35559,-4.67266 -2.16726,-6.19247c0.19,-1.53337 0.96803,-5.18024 3.04021,-4.33746z" data-paper-data="{&quot;origRot&quot;:0,&quot;index&quot;:null}" fill="#503929" stroke="none" stroke-width="0" stroke-linecap="butt" stroke-linejoin="miter"/><g stroke="none" stroke-width="0" stroke-linecap="butt" stroke-linejoin="miter"><path d="M232.69135,170.77837c0,0 3.68142,-2.37416 8.02997,-2.2045c4.34855,0.16967 6.73278,2.69815 6.73278,2.69815l1.4714,1.67265c0,0 4.51013,-0.96594 5.59537,1.88483c-1.63471,2.54525 -0.29066,7.79547 -15.77005,7.39159c-14.02682,-0.36598 -12.2458,-6.01943 -13.27169,-8.12099c1.39775,-2.4012 6.0823,-1.56163 6.0823,-1.56163z" data-paper-data="{&quot;origPos&quot;:null,&quot;index&quot;:null}" fill="#3181b0"/><path d="M231.13513,174.19743l1.57092,-2.63641c0,0 3.18269,-2.27456 8.47008,-2.12027c4.72451,0.13786 6.57889,3.19808 6.57889,3.19808l0.4858,2.59493c0,0 -2.09006,-3.76317 -7.95269,-3.77748c-5.86263,-0.01431 -9.153,2.74116 -9.153,2.74116z" data-paper-data="{&quot;origPos&quot;:null,&quot;index&quot;:null}" fill="#c99638"/></g><path d="M230.87211,171.44128c-2.26255,-2.42343 0.26715,-4.24742 1.71381,-1.86634c1.09455,0.38515 0.81462,-0.28021 1.44518,1.23275c1.04837,0.35227 1.11947,0.8765 1.13052,1.02473c0.04939,0.66287 -0.64212,0.0767 -1.50571,0.00822c-0.86358,-0.06848 -1.81849,0.48345 -2.7838,-0.39936z" data-paper-data="{&quot;origRot&quot;:0,&quot;index&quot;:null}" fill="#7b5030" stroke="none" stroke-width="0" stroke-linecap="butt" stroke-linejoin="miter"/><path d="M233.41225,181.7745c-0.28758,0.16076 -2.63508,-0.21017 -2.68928,-0.95229c-0.01332,-0.50333 1.84393,-6.55689 1.04293,-8.59214c-0.06508,-1.10358 2.34152,-2.34778 2.34152,-2.34778c0,0 0.69584,0.71889 0.76464,4.47863c0.05358,2.92843 -1.21539,7.13309 -1.4598,7.41357z" data-paper-data="{&quot;origRot&quot;:0,&quot;index&quot;:null}" fill="#235163" stroke="none" stroke-width="0" stroke-linecap="round" stroke-linejoin="miter"/><path d="M245.96735,172.49662c-0.86572,0.04325 -1.57926,0.60892 -1.50455,-0.05213c0.0167,-0.14782 0.10782,-0.66969 1.16907,-0.99118c0.68806,-1.49373 0.38284,-0.8369 1.49151,-1.18991c1.53688,-2.33755 3.99544,-0.44078 1.64149,1.91529c-0.99852,0.85415 -1.9318,0.27468 -2.79752,0.31793z" data-paper-data="{&quot;origRot&quot;:0,&quot;index&quot;:null}" fill="#7b5030" stroke="none" stroke-width="0" stroke-linecap="butt" stroke-linejoin="miter"/><path d="M246.20638,181.96115c-0.23356,-0.28746 -1.34105,-4.52679 -1.17553,-7.45202c0.21251,-3.75564 0.93545,-4.45383 0.93545,-4.45383c0,0 2.35769,1.31371 2.25045,2.41478c-0.87837,2.01074 0.74639,8.11511 0.71383,8.61777c-0.08254,0.74012 -2.44292,1.04237 -2.7242,0.87331z" data-paper-data="{&quot;origRot&quot;:0,&quot;index&quot;:null}" fill="#235163" stroke="none" stroke-width="0" stroke-linecap="round" stroke-linejoin="miter"/><path d="M232.41141,168.98936c0,0 1.22303,0.59639 1.10217,1.41867c-0.12086,0.82228 -0.95289,1.75513 -3.6377,1.60328c-1.93602,-0.1095 -1.74965,-1.5413 -2.12073,-2.22553c-0.14286,-0.2634 0.55645,-1.01723 0.93889,-0.97084c0.73958,0.10607 1.57972,-1.34505 3.71738,0.17441z" data-paper-data="{&quot;origRot&quot;:0,&quot;index&quot;:null}" fill="#7b5030" stroke="none" stroke-width="0" stroke-linecap="butt" stroke-linejoin="miter"/><path d="M234.38504,171.01761c0.43162,1.5843 -2.00431,3.61985 -3.12933,0.6873c-1.70797,-4.45213 0.73007,-2.22538 1.47473,-2.06832c1.40426,0.47495 1.217,-0.22522 1.6546,1.38102z" data-paper-data="{&quot;origRot&quot;:0,&quot;index&quot;:null}" fill="#7b5030" stroke="none" stroke-width="0" stroke-linecap="butt" stroke-linejoin="miter"/><path d="M247.46294,169.28396c2.32125,-1.5274 3.12978,-0.06994 3.91163,-0.17683c0.40387,-0.04677 1.09986,0.71023 0.93654,0.97491c-0.42424,0.68755 -0.30113,2.12587 -2.33926,2.23672c-2.82642,0.15371 -3.65269,-0.78308 -3.73792,-1.60911c-0.08523,-0.82602 1.22901,-1.4257 1.22901,-1.4257z" data-paper-data="{&quot;origRot&quot;:0,&quot;index&quot;:null}" fill="#7b5030" stroke="none" stroke-width="0" stroke-linecap="butt" stroke-linejoin="miter"/><path d="M247.34612,170.00862c0.75025,-0.13525 3.27207,-2.28964 1.39483,2.11019c-1.23651,2.8981 -3.59326,0.79263 -3.1013,-0.7782c0.49877,-1.59258 0.28484,-0.89827 1.70648,-1.33199z" data-paper-data="{&quot;origRot&quot;:0,&quot;index&quot;:null}" fill="#7b5030" stroke="none" stroke-width="0" stroke-linecap="butt" stroke-linejoin="miter"/><path d="M244.97625,175.44512c0.77545,-2.82941 4.70752,-0.44536 2.17234,1.01437c0.53065,-1.36255 2.36943,0.45103 0.64198,0.96945c2.1245,-2.90222 5.09036,1.43296 1.99558,2.3861c1.91413,-1.14294 2.00987,1.83851 0.11081,1.27817c3.57162,-1.60279 3.68233,4.55519 -0.02375,3.24471c5.63554,-0.31344 2.05461,7.94801 -1.97474,4.06096c4.80783,0.32927 -0.83568,5.79202 -1.68485,0.90779c5.10923,2.71315 -2.7737,5.95221 -2.53798,1.93603c1.66355,1.5936 -1.95921,2.36878 -1.37954,0.30905c1.71819,3.28391 -5.5101,4.52181 -4.93095,0.40231c-0.04189,2.12248 -3.71824,1.4912 -3.0566,-0.75016c-1.353,2.65767 -6.26404,-0.35854 -2.21594,-1.98364c-2.17973,3.27136 -6.2485,-2.29742 -1.98155,-2.78887c-1.97866,2.01554 -3.67306,-1.97817 -0.90882,-1.64582c-2.24757,1.36871 -3.78297,-3.14458 -0.54479,-3.0727c-2.1,0.23849 -1.76598,-3.32355 0.34272,-2.877c-0.53258,-1.20504 1.07741,-2.06193 1.4398,-0.95181c-1.43184,-0.20036 0.04875,-2.01923 0.55073,-0.79504c-2.18274,-2.27109 3.36507,-4.76304 3.82556,-1.29198c2.11259,-0.81529 4.34721,-0.88232 10.16,-0.35191z" fill="#000000" stroke="none" stroke-width="0" stroke-linecap="butt" stroke-linejoin="miter"/><path d="M242.25662,172.50736c1.07718,0.37744 1.35691,-0.02708 2.8544,0.9755c1.37248,1.17598 1.84917,1.79733 1.92057,3.68065c0.07148,1.8856 2.12426,2.47921 1.62889,3.00251c-0.53751,0.56782 -1.62279,-1.61669 -1.0978,0.49778c0.52498,2.11447 1.91088,9.88147 -7.72821,9.69181c-9.70076,-0.19087 -8.18299,-7.74591 -7.62884,-9.35024c0.87735,-2.54005 0.29151,-0.60084 -0.76726,-1.30561c-0.23205,-0.59061 1.51424,-1.35504 1.84636,-2.99817c0.33212,-1.64312 0.57276,-2.74827 1.97684,-3.48898c1.1828,-0.71293 1.33182,-0.48501 2.60714,-0.75016c0.78894,-0.16403 1.05081,-0.52249 2.11723,-0.51139c1.11909,0.01165 1.64153,0.33584 2.2707,0.5563z" fill="#7b5030" stroke="none" stroke-width="0" stroke-linecap="butt" stroke-linejoin="miter"/><path d="M238.24254,173.15562c0.15971,-0.55443 1.16038,-0.28214 1.16038,-0.28214c0,0 0.20291,-0.27908 0.73179,-0.27136c0.60584,0.00884 0.74183,0.32197 0.74183,0.32197c0,0 0.9851,-0.15319 0.98708,0.35239" data-paper-data="{&quot;index&quot;:null}" fill="none" stroke="#503929" stroke-width="1.5" stroke-linecap="round" stroke-linejoin="round"/><g fill="#000000" stroke="none" stroke-linejoin="miter"><path d="M237.60954,175.66494c0.63771,-0.207 0.73602,-0.27297 0.73602,-0.27297c0,0 0.14909,0.42479 -0.38309,0.59753c-0.81971,-0.02227 -3.41683,0.49434 -3.41683,0.49434c0,0 0.43115,-0.29576 0.97712,-0.44168c0.64975,-0.17366 2.08678,-0.37721 2.08678,-0.37721z" data-paper-data="{&quot;origPos&quot;:null,&quot;index&quot;:null}" stroke-width="0.5" stroke-linecap="butt"/><path d="M244.98482,176.01377c0,0 -1.21576,-0.68851 -1.81876,-0.71246c-0.77794,-0.0309 -1.17909,0.05901 -1.17909,0.05901c0,0 0.08492,-0.62599 1.1456,-0.58934c1.06068,0.03665 1.85225,1.24278 1.85225,1.24278z" data-paper-data="{&quot;origPos&quot;:null}" stroke-width="0" stroke-linecap="round"/><path d="M238.06184,175.28584c0,0 -0.39749,-0.10157 -1.17617,-0.09337c-0.60358,0.00635 -1.84499,0.65901 -1.84499,0.65901c0,0 0.98272,-1.17544 1.89859,-1.18036c0.91587,-0.00492 1.12258,0.61472 1.12258,0.61472z" data-paper-data="{&quot;origPos&quot;:null,&quot;index&quot;:null}" stroke-width="0" stroke-linecap="round"/><path d="M244.54122,176.24506c0.54009,0.16177 0.95969,0.46994 0.95969,0.46994c0,0 -2.57592,-0.59211 -3.396,-0.59373c-0.5253,-0.18819 -0.36005,-0.60839 -0.36005,-0.60839c0,0 0.09574,0.06883 0.72517,0.29428c0,0 1.42844,0.24538 2.07119,0.4379z" data-paper-data="{&quot;origPos&quot;:null,&quot;index&quot;:null}" stroke-width="0.5" stroke-linecap="butt"/></g></g></g></svg>